<svg
        xmlns="http://www.w3.org/2000/svg"
        xmlns:xlink="http://www.w3.org/1999/xlink"
        width="14px" height="13px">
    <path fill-rule="evenodd"  fill="rgb(54, 164, 253)"
          d="M12.526,12.185 L1.041,12.185 C0.403,12.185 0.084,11.866 0.084,11.227 L0.084,5.478 C0.084,4.839 0.403,4.520 1.041,4.520 L12.526,4.520 C13.164,4.520 13.483,4.839 13.483,5.478 L13.483,11.227 C13.483,11.866 13.164,12.185 12.526,12.185 ZM0.084,1.645 C0.084,1.116 0.512,0.687 1.041,0.687 L4.391,0.687 L6.305,2.603 L12.526,2.603 C13.055,2.603 13.483,3.032 13.483,3.562 L0.084,3.562 L0.084,1.645 Z"/>
</svg>
